<svg width="38" height="38" viewBox="0 0 38 38" fill="none" xmlns="http://www.w3.org/2000/svg">
<path d="M17.4168 12.3897V30.0834C17.4168 30.532 17.5688 30.9078 17.8728 31.2107C18.1768 31.5137 18.5525 31.6657 19.0001 31.6667C19.4477 31.6678 19.824 31.5158 20.129 31.2107C20.4341 30.9057 20.5855 30.5299 20.5834 30.0834V12.3897L28.3418 20.148C28.6584 20.4647 29.0279 20.6167 29.4501 20.604C29.8723 20.5913 30.2418 20.4261 30.5584 20.1084C30.8487 19.7917 31.0002 19.4223 31.0128 19.0001C31.0255 18.5779 30.874 18.2084 30.5584 17.8917L20.1084 7.44174C19.9501 7.28341 19.7786 7.17099 19.5938 7.10449C19.4091 7.03799 19.2112 7.00527 19.0001 7.00632C18.789 7.00738 18.5911 7.0401 18.4063 7.10449C18.2216 7.16888 18.0501 7.2813 17.8918 7.44174L7.44176 17.8917C7.15149 18.182 7.00635 18.5446 7.00635 18.9795C7.00635 19.4144 7.15149 19.7907 7.44176 20.1084C7.75843 20.4251 8.13474 20.5834 8.57068 20.5834C9.00663 20.5834 9.3824 20.4251 9.69801 20.1084L17.4168 12.3897Z" fill="#555555"/>
</svg>
