<svg width="38" height="38" viewBox="0 0 38 38" fill="none" xmlns="http://www.w3.org/2000/svg">
<path d="M17.4168 25.6104V7.91667C17.4168 7.46806 17.5688 7.09228 17.8728 6.78933C18.1768 6.48639 18.5525 6.33439 19.0001 6.33333C19.4477 6.33228 19.824 6.48428 20.129 6.78933C20.4341 7.09439 20.5855 7.47017 20.5834 7.91667V25.6104L28.3418 17.8521C28.6584 17.5354 29.0279 17.3834 29.4501 17.3961C29.8723 17.4088 30.2418 17.5739 30.5584 17.8917C30.8487 18.2083 31.0002 18.5778 31.0128 19C31.0255 19.4222 30.874 19.7917 30.5584 20.1083L20.1084 30.5583C19.9501 30.7167 19.7786 30.8291 19.5938 30.8956C19.4091 30.9621 19.2112 30.9948 19.0001 30.9938C18.789 30.9927 18.5911 30.96 18.4063 30.8956C18.2216 30.8312 18.0501 30.7188 17.8918 30.5583L7.44176 20.1083C7.15149 19.8181 7.00635 19.4555 7.00635 19.0206C7.00635 18.5857 7.15149 18.2094 7.44176 17.8917C7.75843 17.575 8.13474 17.4167 8.57068 17.4167C9.00663 17.4167 9.3824 17.575 9.69801 17.8917L17.4168 25.6104Z" fill="#555555"/>
</svg>
