<svg width="88" height="88" viewBox="0 0 88 88" fill="none" xmlns="http://www.w3.org/2000/svg">
<path d="M44.001 4.29565C48.904 4.29337 53.068 6.01508 56.5283 9.47534C59.9888 12.9358 61.7098 17.0991 61.7051 21.9998V29.9617H66C67.8485 29.9617 69.4168 30.6138 70.7373 31.9343C72.0574 33.2547 72.7073 34.8205 72.7051 36.6658V73.3337C72.705 75.1824 72.0544 76.7497 70.7363 78.0701C69.4188 79.3899 67.8518 80.0401 66.001 80.0378H22C20.1514 80.0378 18.5853 79.3877 17.2676 78.0701C16.0321 76.8346 15.382 75.3794 15.3037 73.6765L15.2959 73.3328V36.6667C15.2959 34.8184 15.9466 33.2522 17.2666 31.9343C18.5873 30.6158 20.1546 29.9639 22.001 29.9617H26.2959V21.9998C26.296 17.0938 28.0178 12.9307 31.4756 9.47534C34.9336 6.01974 39.0973 4.29802 44.001 4.29565ZM44 10.3718C40.7798 10.3719 38.0227 11.5064 35.7646 13.7644C33.5066 16.0224 32.3721 18.7795 32.3721 21.9998V29.9617H55.6289V21.9998C55.6288 18.7796 54.4943 16.0224 52.2363 13.7644C49.9782 11.5063 47.2204 10.3718 44 10.3718Z" fill="#FA6037" stroke="#313131" stroke-width="1.25714"/>
</svg>
