<svg width="29" height="40" viewBox="0 0 29 40" fill="none" xmlns="http://www.w3.org/2000/svg">
<path d="M13.542 1.39999C13.542 1.01517 13.8539 0.703217 14.2388 0.703217H16.1549C16.5397 0.703217 16.8517 1.01517 16.8517 1.39999V37.7193C16.8517 38.6333 16.1108 39.3742 15.1968 39.3742C14.2829 39.3742 13.542 38.6333 13.542 37.7193V1.39999Z" fill="#3A7994" stroke="#313131" stroke-width="0.4"/>
<path d="M12.1482 22.4774C12.1482 22.9584 11.7582 23.3484 11.2772 23.3484L1.87078 23.3484C1.38975 23.3484 0.999807 22.9584 0.999807 22.4774L0.999808 10.8064C0.999809 7.72791 3.49546 5.23226 6.574 5.23226L11.2772 5.23226C11.7582 5.23226 12.1482 5.6222 12.1482 6.10323L12.1482 22.4774Z" fill="#FA6037" stroke="#313131" stroke-width="0.4"/>
<path d="M1 25.6129C1 25.1319 1.38995 24.7419 1.87097 24.7419H11.2774C11.7584 24.7419 12.1484 25.1319 12.1484 25.6129V33.8C12.1484 34.281 11.7584 34.671 11.2774 34.671H5.96452C3.22269 34.671 1 32.4483 1 29.7065V25.6129Z" fill="#FA6037" stroke="#313131" stroke-width="0.4"/>
<path d="M16.8518 16.5548H27.1292C27.6102 16.5548 28.0002 16.9448 28.0002 17.4258V29.0968C28.0002 32.1753 25.5045 34.671 22.426 34.671H16.8518L16.8518 16.5548Z" fill="#3A7994" stroke="#313131" stroke-width="0.4"/>
<path d="M16.8518 5.23227H23.0357C25.7775 5.23227 28.0002 7.45496 28.0002 10.1968V14.2903C28.0002 14.7714 27.6102 15.1613 27.1292 15.1613H16.8518V5.23227Z" fill="#3A7994" stroke="#313131" stroke-width="0.4"/>
</svg>
