<svg width="143" height="143" viewBox="0 0 143 143" fill="none" xmlns="http://www.w3.org/2000/svg">
<path d="M35.7505 30.7916H53.6255C56.5206 30.7917 59.2971 31.9418 61.3442 33.9889C63.3915 36.0362 64.5415 38.8133 64.5415 41.7086V77.4586C64.5414 86.6033 62.1345 94.1053 57.5308 99.8776C52.9249 105.652 46.0493 109.785 36.9556 112.059L36.9478 112.061C36.3145 112.225 35.6547 112.261 35.0073 112.169C34.36 112.076 33.7374 111.856 33.1753 111.522C32.6131 111.188 32.1225 110.746 31.7319 110.221C31.3414 109.697 31.0579 109.1 30.8989 108.465C30.74 107.831 30.7081 107.171 30.8052 106.524C30.9023 105.877 31.1271 105.256 31.4653 104.696C31.8036 104.136 32.2495 103.649 32.7769 103.262C33.3043 102.876 33.903 102.596 34.5386 102.442L34.5454 102.44C41.313 100.747 46.3674 97.9393 49.7192 93.7682C53.0746 89.5926 54.6254 84.1743 54.6255 77.4586V70.4996H35.7495C32.9955 70.5004 30.3431 69.4601 28.3237 67.5875C26.3062 65.7166 25.0691 63.1532 24.8608 60.4098L24.8335 59.5836V41.7086C24.8335 38.8133 25.9835 36.0362 28.0308 33.9889C30.078 31.9416 32.8552 30.7916 35.7505 30.7916ZM89.3755 30.7916H107.25C110.146 30.7917 112.922 31.9418 114.969 33.9889C117.017 36.0362 118.167 38.8133 118.167 41.7086V77.4586C118.166 86.6033 115.759 94.1053 111.156 99.8776C106.55 105.652 99.6743 109.785 90.5806 112.059L90.5728 112.061C89.9395 112.225 89.2797 112.261 88.6323 112.169C87.985 112.076 87.3624 111.856 86.8003 111.522C86.2381 111.188 85.7475 110.746 85.3569 110.221C84.9664 109.697 84.6829 109.1 84.5239 108.465C84.365 107.831 84.3331 107.171 84.4302 106.524C84.5273 105.877 84.7521 105.256 85.0903 104.696C85.4286 104.136 85.8745 103.649 86.4019 103.262C86.9293 102.876 87.528 102.596 88.1636 102.442L88.1704 102.44C94.938 100.747 99.9924 97.9393 103.344 93.7682C106.7 89.5926 108.25 84.1743 108.25 77.4586V70.4996H89.3745C86.6205 70.5004 83.9681 69.4601 81.9487 67.5875C79.9312 65.7166 78.6941 63.1532 78.4858 60.4098L78.4585 59.5836V41.7086C78.4585 38.8133 79.6085 36.0362 81.6558 33.9889C83.703 31.9416 86.4802 30.7916 89.3755 30.7916Z" fill="#FA6037" stroke="#555555" stroke-width="2"/>
</svg>
