<svg width="143" height="143" viewBox="0 0 143 143" fill="none" xmlns="http://www.w3.org/2000/svg">
<path d="M107.25 112.208L89.3745 112.208C86.4794 112.208 83.7029 111.058 81.6558 109.011C79.6085 106.964 78.4585 104.187 78.4585 101.291L78.4585 65.5414C78.4586 56.3967 80.8655 48.8947 85.4692 43.1224C90.0751 37.3477 96.9507 33.215 106.044 30.9408L106.052 30.9388C106.686 30.7754 107.345 30.7389 107.993 30.8314C108.64 30.9239 109.263 31.1437 109.825 31.4779C110.387 31.8121 110.877 32.2541 111.268 32.7787C111.659 33.3033 111.942 33.9001 112.101 34.5345C112.26 35.1691 112.292 35.8291 112.195 36.476C112.098 37.1228 111.873 37.7442 111.535 38.3041C111.196 38.8638 110.751 39.3509 110.223 39.7377C109.696 40.1245 109.097 40.4036 108.461 40.558L108.455 40.5599C101.687 42.2527 96.6326 45.0607 93.2808 49.2318C89.9254 53.4074 88.3746 58.8257 88.3745 65.5414L88.3745 72.5004L107.25 72.5004C110.005 72.4996 112.657 73.5398 114.676 75.4125C116.694 77.2834 117.931 79.8468 118.139 82.5902L118.167 83.4164L118.167 101.291C118.167 104.187 117.017 106.964 114.969 109.011C112.922 111.058 110.145 112.208 107.25 112.208ZM53.6245 112.208L35.7495 112.208C32.8544 112.208 30.0779 111.058 28.0308 109.011C25.9835 106.964 24.8335 104.187 24.8335 101.291L24.8335 65.5414C24.8336 56.3967 27.2405 48.8947 31.8442 43.1224C36.4501 37.3477 43.3257 33.215 52.4194 30.9408L52.4273 30.9388C53.0605 30.7754 53.7203 30.7389 54.3677 30.8314C55.015 30.9239 55.6376 31.1437 56.1997 31.4779C56.7619 31.8121 57.2525 32.2541 57.6431 32.7787C58.0336 33.3033 58.3171 33.9001 58.4761 34.5345C58.635 35.1691 58.6669 35.8291 58.5698 36.4759C58.4727 37.1228 58.2479 37.7442 57.9097 38.3041C57.5714 38.8638 57.1255 39.3509 56.5982 39.7377C56.0707 40.1245 55.472 40.4036 54.8364 40.558L54.8296 40.5599C48.062 42.2527 43.0076 45.0607 39.6558 49.2318C36.3004 53.4074 34.7496 58.8257 34.7495 65.5414L34.7495 72.5004L53.6255 72.5004C56.3795 72.4996 59.0319 73.5398 61.0513 75.4125C63.0688 77.2834 64.3059 79.8468 64.5142 82.5902L64.5415 83.4164L64.5415 101.291C64.5415 104.187 63.3915 106.964 61.3442 109.011C59.297 111.058 56.5198 112.208 53.6245 112.208Z" fill="#FA6037" stroke="#555555" stroke-width="2"/>
</svg>
