<svg width="109" height="109" viewBox="0 0 109 109" fill="none" xmlns="http://www.w3.org/2000/svg">
<path d="M18.4199 77.8184C21.8059 77.8468 24.6575 79.0366 27.0303 81.4053C29.4002 83.7711 30.5762 86.6215 30.5762 90.0137C30.5761 93.4057 29.4005 96.2531 27.0312 98.6143L27.0293 98.6152C23.6391 102.005 19.6865 104.167 15.1543 105.12L14.7139 105.209C10.2222 106.065 5.68976 106.725 1.11719 107.197C1.59283 102.551 2.28047 98.0016 3.18457 93.5488C4.10459 89.0176 6.20436 85.056 9.50293 81.6484L9.82617 81.3203C12.195 78.9514 15.04 77.7901 18.4199 77.8184ZM85.0498 75.5156C85.3712 77.1269 85.3106 78.6999 84.8711 80.248C84.4345 81.7859 83.6431 83.1294 82.4834 84.2891L64.2715 102.501C63.216 103.556 61.9667 103.939 60.4014 103.645H60.3994C58.8692 103.358 57.8633 102.533 57.2842 101.089L57.2803 101.078L57.2754 101.067L51.625 87.8936C57.554 85.2182 63.2007 82.1751 68.5635 78.7617L68.5645 78.7607C73.7283 75.4699 78.7078 71.884 83.5049 68.0059L85.0498 75.5156ZM102.892 1C103.457 1.00137 103.981 1.11045 104.472 1.32324L104.475 1.32422C104.957 1.53126 105.449 1.87016 105.948 2.36914C106.447 2.86789 106.785 3.36004 106.992 3.8418L106.995 3.84766C107.207 4.33203 107.315 4.85468 107.316 5.42578C107.109 15.3256 104.907 24.6563 100.71 33.4277C96.4988 42.2293 90.8907 50.1327 83.8828 57.1406C79.3667 61.6568 74.4607 65.6984 69.1631 69.2646C63.8563 72.8371 58.3073 75.9567 52.5166 78.625L52.5137 78.627C51.4787 79.1076 50.4629 79.3196 49.4561 79.2861C48.5608 79.2563 47.7431 78.8994 46.9766 78.1328L46.9736 78.1309L30.1816 61.4619C29.432 60.7154 29.0898 59.8952 29.0898 58.96C29.0899 57.8931 29.3271 56.8445 29.8135 55.8057L29.8125 55.8047C32.5659 50.0085 35.69 44.4559 39.1826 39.1455C42.6644 33.8516 46.6618 28.9476 51.1758 24.4336C58.1881 17.4256 66.0916 11.8185 74.8887 7.60742C83.6559 3.41068 92.987 1.2077 102.892 1ZM28.0312 23.3125C29.4295 22.903 30.8737 22.822 32.376 23.0762L32.6777 23.1309L40.3086 24.7217C36.4308 29.4971 32.8462 34.4703 29.5557 39.6416V39.6426C26.1389 45.0166 23.0952 50.6585 20.4238 56.5674L7.25 50.917L7.23828 50.9121L7.22559 50.9072L6.96289 50.7949C5.68466 50.2061 4.94785 49.2349 4.68652 47.7979C4.40264 46.2365 4.79049 44.9859 5.84863 43.9277L24.0664 25.7041C25.2319 24.5426 26.551 23.7516 28.0312 23.3125ZM73.9795 23.4854C70.9824 23.4854 68.4009 24.5485 66.293 26.6562C64.1854 28.7639 63.1212 31.3436 63.1211 34.3369C63.1211 37.3303 64.185 39.9117 66.292 42.0234L66.2949 42.0264C68.4102 44.1273 70.9903 45.1905 73.9785 45.1953C76.9691 45.2 79.5486 44.1359 81.6602 42.0244C83.7721 39.9125 84.8358 37.3305 84.8311 34.3359C84.8263 31.3437 83.7638 28.7647 81.6611 26.6572C79.5572 24.5485 76.9769 23.4854 73.9795 23.4854Z" fill="#FA6037" stroke="#313131" stroke-width="2"/>
</svg>
