<svg width="78" height="22" viewBox="0 0 78 22" fill="none" xmlns="http://www.w3.org/2000/svg">
<path d="M11.2634 4.34038C11.1456 4.52938 11.0199 4.67113 10.8863 4.76563C10.7607 4.86013 10.5957 4.90738 10.3915 4.90738C10.2108 4.90738 10.0144 4.85225 9.80235 4.742C9.59811 4.62387 9.36246 4.49394 9.09539 4.35219C8.83618 4.21044 8.53769 4.08444 8.19992 3.97419C7.86216 3.85606 7.47726 3.797 7.04523 3.797C6.29901 3.797 5.7413 3.95844 5.37212 4.28131C5.01079 4.59631 4.83012 5.0255 4.83012 5.56887C4.83012 5.91537 4.94009 6.20281 5.16003 6.43119C5.37997 6.65956 5.66668 6.85644 6.02016 7.02181C6.38149 7.18719 6.78995 7.34075 7.24554 7.4825C7.70898 7.61637 8.18029 7.76993 8.65944 7.94318C9.1386 8.10856 9.60597 8.30544 10.0616 8.53381C10.525 8.76219 10.9335 9.05356 11.2869 9.40793C11.6483 9.76231 11.9389 10.1954 12.1589 10.7073C12.3788 11.2113 12.4888 11.8216 12.4888 12.5382C12.4888 13.3336 12.3513 14.0778 12.0764 14.7708C11.8014 15.4638 11.4008 16.0702 10.8746 16.5899C10.3561 17.1018 9.71201 17.5074 8.94222 17.8066C8.18029 18.098 7.31231 18.2437 6.33828 18.2437C5.80414 18.2437 5.25822 18.1885 4.70051 18.0783C4.15066 17.968 3.61652 17.8145 3.09809 17.6176C2.57966 17.4129 2.09265 17.1727 1.63706 16.897C1.18147 16.6214 0.784787 16.3143 0.447021 15.9757L1.62527 14.1093C1.71953 13.9754 1.84129 13.8652 1.99053 13.7786C2.14763 13.6841 2.31652 13.6368 2.49718 13.6368C2.73283 13.6368 2.96848 13.7116 3.20413 13.8612C3.44764 14.0109 3.71864 14.1762 4.01713 14.3574C4.32347 14.5385 4.67302 14.7039 5.06577 14.8535C5.45852 15.0031 5.92197 15.0779 6.45611 15.0779C7.17877 15.0779 7.7404 14.9204 8.14101 14.6054C8.54162 14.2826 8.74192 13.7746 8.74192 13.0816C8.74192 12.68 8.63195 12.3532 8.41201 12.1012C8.19207 11.8492 7.90143 11.6405 7.5401 11.4751C7.18662 11.3097 6.78209 11.1641 6.3265 11.0381C5.87091 10.9121 5.40354 10.7742 4.92438 10.6246C4.44523 10.4671 3.97785 10.2781 3.52226 10.0576C3.06667 9.82924 2.65821 9.53393 2.29688 9.17168C1.9434 8.80156 1.65669 8.34481 1.43675 7.80143C1.21681 7.25018 1.10684 6.57294 1.10684 5.76969C1.10684 5.12394 1.23645 4.49394 1.49567 3.87969C1.75488 3.26544 2.13585 2.71813 2.63857 2.23775C3.14129 1.75738 3.75791 1.37544 4.48843 1.09194C5.21894 0.800568 6.0555 0.654881 6.9981 0.654881C7.52439 0.654881 8.03497 0.698193 8.52983 0.784819C9.03256 0.863568 9.50778 0.98563 9.95552 1.151C10.4033 1.3085 10.8196 1.50144 11.2045 1.72982C11.5972 1.95032 11.9468 2.20232 12.2531 2.48582L11.2634 4.34038Z" fill="#313131"/>
<path d="M17.848 14.7236C18.1229 15.0228 18.4214 15.2354 18.7434 15.3614C19.0655 15.4874 19.4033 15.5504 19.7567 15.5504C20.0945 15.5504 20.4048 15.4835 20.6876 15.3496C20.9703 15.2157 21.2138 15.0031 21.4181 14.7117C21.6302 14.4125 21.7951 14.0266 21.9129 13.5541C22.0308 13.0816 22.0897 12.5067 22.0897 11.8295C22.0897 11.1837 22.0425 10.6404 21.9483 10.1994C21.854 9.75837 21.7205 9.40399 21.5477 9.13624C21.3827 8.86062 21.1824 8.66374 20.9468 8.54562C20.7111 8.4275 20.448 8.36843 20.1573 8.36843C19.6232 8.36843 19.1833 8.46687 18.8377 8.66375C18.4921 8.86062 18.1622 9.14806 17.848 9.52606V14.7236ZM17.6241 7.31712C18.1033 6.80525 18.6453 6.38787 19.2501 6.065C19.8628 5.73425 20.5894 5.56887 21.4299 5.56887C22.0661 5.56887 22.6552 5.71062 23.1972 5.99412C23.7392 6.27762 24.2066 6.68712 24.5994 7.22262C24.9921 7.75812 25.2985 8.41568 25.5184 9.19531C25.7462 9.96706 25.8601 10.8451 25.8601 11.8295C25.8601 12.7509 25.7305 13.6014 25.4713 14.381C25.2199 15.1606 24.8625 15.8379 24.3991 16.4127C23.9435 16.9876 23.3936 17.4365 22.7495 17.7594C22.1132 18.0822 21.4063 18.2437 20.6286 18.2437C19.9924 18.2437 19.4582 18.1531 19.0262 17.972C18.5942 17.7909 18.2014 17.5467 17.848 17.2396V21.941H14.1954V5.80512H16.4576C16.9132 5.80512 17.2117 6.00987 17.3531 6.41937L17.6241 7.31712Z" fill="#313131"/>
<path d="M31.485 5.80512V18.0547H27.8324V5.80512H31.485ZM31.862 2.45038C31.862 2.74175 31.8031 3.01738 31.6852 3.27725C31.5674 3.52925 31.4064 3.75369 31.2022 3.95056C30.9979 4.13956 30.7584 4.29313 30.4834 4.41125C30.2164 4.5215 29.9297 4.57663 29.6233 4.57663C29.3248 4.57663 29.046 4.5215 28.7868 4.41125C28.5275 4.29313 28.2958 4.13956 28.0916 3.95056C27.8952 3.75369 27.7381 3.52925 27.6203 3.27725C27.5103 3.01738 27.4553 2.74175 27.4553 2.45038C27.4553 2.15113 27.5103 1.87157 27.6203 1.61169C27.7381 1.35182 27.8952 1.12344 28.0916 0.926568C28.2958 0.729693 28.5275 0.576131 28.7868 0.46588C29.046 0.355631 29.3248 0.300507 29.6233 0.300507C29.9297 0.300507 30.2164 0.355631 30.4834 0.46588C30.7584 0.576131 30.9979 0.729693 31.2022 0.926568C31.4064 1.12344 31.5674 1.35182 31.6852 1.61169C31.8031 1.87157 31.862 2.15113 31.862 2.45038Z" fill="#313131"/>
<path d="M37.4022 7.12812C37.6378 6.90762 37.8813 6.70287 38.1327 6.51387C38.3841 6.32487 38.6511 6.16737 38.9339 6.04137C39.2245 5.9075 39.5348 5.80512 39.8647 5.73425C40.2025 5.6555 40.5677 5.61612 40.9605 5.61612C41.6282 5.61612 42.2173 5.73425 42.7279 5.9705C43.2463 6.19887 43.6823 6.52175 44.0357 6.93912C44.3892 7.34862 44.6563 7.84081 44.8369 8.41568C45.0176 8.98268 45.1079 9.60087 45.1079 10.2702V18.0547H41.4554V10.2702C41.4554 9.67175 41.3179 9.20712 41.043 8.87637C40.768 8.53775 40.3635 8.36843 39.8294 8.36843C39.4288 8.36843 39.0517 8.45506 38.6982 8.62831C38.3526 8.79368 38.0149 9.02206 37.685 9.31343V18.0547H34.0324V5.80512H36.2946C36.7502 5.80512 37.0487 6.00987 37.1901 6.41937L37.4022 7.12812Z" fill="#313131"/>
<path d="M54.883 9.08899C54.6081 8.78187 54.3096 8.56925 53.9875 8.45112C53.6655 8.32512 53.3277 8.26212 52.9743 8.26212C52.6365 8.26212 52.3262 8.32906 52.0434 8.46293C51.7607 8.59681 51.5132 8.81337 51.3011 9.11262C51.0969 9.404 50.9359 9.78593 50.818 10.2584C50.7002 10.7309 50.6413 11.3019 50.6413 11.9712C50.6413 12.617 50.6884 13.1604 50.7827 13.6014C50.877 14.0424 51.0066 14.4007 51.1715 14.6763C51.3443 14.9441 51.5486 15.137 51.7842 15.2551C52.0199 15.3732 52.283 15.4323 52.5736 15.4323C52.8407 15.4323 53.0803 15.4087 53.2924 15.3614C53.5123 15.3063 53.7126 15.2315 53.8933 15.137C54.074 15.0425 54.2428 14.9244 54.3999 14.7826C54.5649 14.633 54.7259 14.4637 54.883 14.2747V9.08899ZM58.5356 0.37138V18.0547H56.2734C55.8178 18.0547 55.5193 17.8499 55.3779 17.4404L55.0951 16.5072C54.8516 16.7671 54.5963 17.0034 54.3292 17.216C54.0622 17.4286 53.7715 17.6137 53.4573 17.7712C53.151 17.9208 52.8172 18.035 52.4558 18.1137C52.1023 18.2004 51.7174 18.2437 51.3011 18.2437C50.6649 18.2437 50.0757 18.1019 49.5338 17.8184C48.9918 17.5349 48.5244 17.1254 48.1316 16.5899C47.7389 16.0544 47.4286 15.4008 47.2008 14.6291C46.9809 13.8494 46.8709 12.9635 46.8709 11.9712C46.8709 11.0577 46.9966 10.2112 47.2479 9.43156C47.4993 8.64406 47.8528 7.96681 48.3084 7.39981C48.7718 6.82493 49.3256 6.37606 49.9697 6.05319C50.6138 5.73031 51.3247 5.56887 52.1023 5.56887C52.7386 5.56887 53.2727 5.65944 53.7048 5.84056C54.1368 6.02169 54.5295 6.26581 54.883 6.57294V0.37138H58.5356Z" fill="#313131"/>
<path d="M64.6559 0.37138V18.0547H61.0033V0.37138H64.6559Z" fill="#313131"/>
<path d="M74.7244 10.4592C74.7244 10.1679 74.6852 9.88437 74.6066 9.60875C74.5359 9.33312 74.4141 9.089 74.2413 8.87637C74.0764 8.65587 73.8564 8.47868 73.5815 8.34481C73.3066 8.21093 72.9728 8.144 72.58 8.144C71.8888 8.144 71.3468 8.34481 70.954 8.74643C70.5613 9.14018 70.3021 9.71112 70.1764 10.4592H74.7244ZM70.1292 12.5855C70.2471 13.6092 70.5573 14.3534 71.0601 14.8181C71.5628 15.2748 72.2108 15.5032 73.0042 15.5032C73.4283 15.5032 73.7936 15.452 74.0999 15.3496C74.4063 15.2472 74.6773 15.1331 74.9129 15.0071C75.1564 14.8811 75.3764 14.7669 75.5728 14.6645C75.777 14.5621 75.9891 14.5109 76.209 14.5109C76.4996 14.5109 76.7196 14.6172 76.8688 14.8299L77.9293 16.1411C77.5522 16.5742 77.1438 16.9285 76.7039 17.2042C76.2719 17.4719 75.8241 17.6845 75.3607 17.842C74.9051 17.9917 74.4456 18.094 73.9821 18.1492C73.5265 18.2122 73.0906 18.2437 72.6743 18.2437C71.8181 18.2437 71.0129 18.1059 70.2589 17.8302C69.5126 17.5467 68.8567 17.1294 68.2912 16.5781C67.7335 16.0269 67.2896 15.3417 66.9597 14.5227C66.6377 13.7037 66.4767 12.7509 66.4767 11.6641C66.4767 10.8451 66.6141 10.0694 66.889 9.33706C67.1718 8.60468 67.5724 7.96287 68.0909 7.41162C68.6171 6.86037 69.2495 6.42331 69.9878 6.10044C70.7341 5.77756 71.5746 5.61612 72.5093 5.61612C73.3184 5.61612 74.0567 5.74212 74.7244 5.99412C75.4 6.24612 75.9773 6.61231 76.4565 7.09269C76.9435 7.57306 77.3205 8.16368 77.5876 8.86456C77.8625 9.55756 78 10.3451 78 11.2271C78 11.5027 77.9882 11.7271 77.9646 11.9004C77.941 12.0736 77.8979 12.2114 77.835 12.3138C77.7722 12.4162 77.6858 12.4871 77.5758 12.5264C77.4737 12.5658 77.3401 12.5855 77.1752 12.5855H70.1292Z" fill="#313131"/>
</svg>
