<svg width="173" height="173" viewBox="0 0 173 173" fill="none" xmlns="http://www.w3.org/2000/svg">
<path d="M73.3831 48.05L80.53 60.1006C83.5019 65.1057 87.8314 69.1661 93.0166 71.8113C98.2018 74.4564 104.031 75.5779 109.827 75.0459L123.771 73.7544L111.721 80.9013C106.715 83.8732 102.655 88.2027 100.01 93.3879C97.3647 98.5731 96.2432 104.402 96.7753 110.198L98.0668 124.142L90.9198 112.092C87.9479 107.087 83.6185 103.026 78.4333 100.381C73.248 97.736 67.4194 96.6145 61.6228 97.1465L47.6787 98.438L59.7294 91.2911C64.7345 88.3192 68.7949 83.9897 71.44 78.8045C74.0851 73.6193 75.2067 67.7906 74.6746 61.9941L73.3831 48.05Z" fill="#FFDD57" stroke="#555555" stroke-width="3.11672" stroke-linecap="round" stroke-linejoin="round"/>
</svg>
