<svg width="172" height="172" viewBox="0 0 172 172" fill="none" xmlns="http://www.w3.org/2000/svg">
<g clip-path="url(#clip0_48_453)">
<path d="M93.566 22.0641L99.3887 36.0185C101.811 41.8149 105.826 46.8062 110.969 50.4139C116.112 54.0216 122.172 56.0981 128.446 56.4025L143.542 57.1225L129.588 62.9452C123.791 65.3673 118.8 69.3824 115.192 74.5253C111.585 79.6681 109.508 85.7281 109.204 92.0028L108.484 107.099L102.661 93.1443C100.239 87.3479 96.2239 82.3566 91.0811 78.7489C85.9382 75.1412 79.8782 73.0648 73.6035 72.7603L58.5076 72.0403L72.462 66.2177C78.2584 63.7956 83.2497 59.7804 86.8574 54.6375C90.4651 49.4947 92.5416 43.4347 92.846 37.16L93.566 22.0641ZM55.6303 91.3276L59.7887 101.292C61.5188 105.432 64.3867 108.997 68.06 111.573C71.7332 114.15 76.0615 115.633 80.5432 115.851L91.3276 116.369L81.3636 120.528C77.2236 122.258 73.6587 125.126 71.0819 128.799C68.5051 132.472 67.0219 136.801 66.8043 141.282L66.2859 152.067L62.1274 142.103C60.3973 137.963 57.5295 134.398 53.8562 131.821C50.183 129.244 45.8547 127.761 41.373 127.543L30.5885 127.025L40.5525 122.866C44.6925 121.136 48.2575 118.269 50.8343 114.595C53.4111 110.922 54.8942 106.594 55.1118 102.112L55.6303 91.3276Z" fill="#FFDD57" stroke="#555555" stroke-width="3.36364" stroke-linecap="round" stroke-linejoin="round"/>
</g>
<defs>
<clipPath id="clip0_48_453">
<rect width="148" height="148" fill="white" transform="translate(0.326416 25.8997) rotate(-9.95023)"/>
</clipPath>
</defs>
</svg>
