<svg width="411" height="587" viewBox="0 0 411 587" fill="none" xmlns="http://www.w3.org/2000/svg">
<path d="M191.129 13.4516C191.129 7.67931 195.808 2.99997 201.581 2.99997H230.323C236.095 2.99997 240.774 7.67932 240.774 13.4516V558.242C240.774 571.951 229.661 583.064 215.952 583.064C202.242 583.064 191.129 571.951 191.129 558.242V13.4516Z" fill="#3A7994" stroke="#313131" stroke-width="6"/>
<path d="M170.226 329.613C170.226 336.828 164.377 342.677 157.161 342.677L16.0646 342.677C8.84923 342.677 3.00003 336.828 3.00003 329.613L3.00005 154.548C3.00005 108.37 40.4348 70.9354 86.613 70.9354L157.161 70.9355C164.377 70.9355 170.226 76.7846 170.226 84L170.226 329.613Z" fill="#FA6037" stroke="#313131" stroke-width="6"/>
<path d="M3 376.645C3 369.43 8.84918 363.581 16.0645 363.581H157.161C164.377 363.581 170.226 369.43 170.226 376.645V499.452C170.226 506.667 164.377 512.516 157.161 512.516H77.4678C36.3404 512.516 3 479.176 3 438.048V376.645Z" fill="#FA6037" stroke="#313131" stroke-width="6"/>
<path d="M240.774 240.774L394.935 240.774C402.151 240.774 408 246.623 408 253.839V428.903C408 475.081 370.565 512.516 324.387 512.516H240.774L240.774 240.774Z" fill="#3A7994" stroke="#313131" stroke-width="6"/>
<path d="M240.774 70.9355H333.532C374.66 70.9355 408 104.276 408 145.403V206.806C408 214.022 402.151 219.871 394.935 219.871H240.774V70.9355Z" fill="#3A7994" stroke="#313131" stroke-width="6"/>
</svg>
