<svg width="14" height="15" viewBox="0 0 14 15" fill="none" xmlns="http://www.w3.org/2000/svg">
<path d="M5.23529 12.5493C2.2 13.5648 2.2 10.7359 1 10.3732M9.47059 14V11.4613C9.47059 10.7359 9.54118 10.4458 9.11765 10.0106C11.0941 9.79295 13 8.99507 13 5.65844C12.9991 4.79162 12.67 3.95917 12.0824 3.33731C12.358 2.58437 12.3326 1.74997 12.0118 1.01619C12.0118 1.01619 11.2353 0.79858 9.54118 1.95914C8.10629 1.57513 6.5996 1.57513 5.16471 1.95914C3.47059 0.79858 2.69412 1.01619 2.69412 1.01619C2.37328 1.74997 2.34791 2.58437 2.62353 3.33731C2.03585 3.95917 1.70674 4.79162 1.70588 5.65844C1.70588 8.99507 3.61176 9.79295 5.58824 10.0106C5.16471 10.4458 5.16471 10.881 5.23529 11.4613V14" stroke="white" stroke-linecap="round" stroke-linejoin="round"/>
</svg>
