<svg width="14" height="12" viewBox="0 0 14 12" fill="none" xmlns="http://www.w3.org/2000/svg">
<path fill-rule="evenodd" clip-rule="evenodd" d="M13.9861 1.21881C14.0165 1.03383 13.9969 0.844052 13.9293 0.669258C13.8617 0.494464 13.7487 0.341049 13.602 0.224996C13.4552 0.108943 13.2801 0.0344992 13.095 0.00942141C12.9098 -0.0156564 12.7213 0.00954907 12.5492 0.082412L0.638719 5.11444C-0.19153 5.46529 -0.234018 6.67018 0.638719 7.03361C1.50302 7.39495 2.37979 7.7255 3.26738 8.02464C4.08091 8.29441 4.96828 8.54391 5.67942 8.6145C5.87375 8.84793 6.11823 9.07298 6.36758 9.27845C6.74858 9.59295 7.20688 9.91654 7.68052 10.2268C8.62917 10.8489 9.68161 11.4436 10.3907 11.8308C11.2383 12.2921 12.2532 11.7609 12.405 10.8335L13.9861 1.21881ZM1.97394 6.06704L12.5081 1.61648L11.0329 10.5903C10.337 10.2108 9.33475 9.64257 8.44181 9.0569C8.03028 8.79175 7.63294 8.50504 7.25146 8.19796C7.14951 8.11438 7.05054 8.02719 6.95475 7.93657L9.71365 5.16896C9.84435 5.03791 9.91781 4.86013 9.91787 4.67474C9.91794 4.48934 9.8446 4.31151 9.714 4.18037C9.5834 4.04923 9.40623 3.97552 9.22146 3.97546C9.0367 3.97539 8.85947 4.04898 8.72878 4.18002L5.70798 7.21112C5.19673 7.14543 4.48489 6.95533 3.7034 6.69674C3.12161 6.50223 2.54514 6.29202 1.97464 6.06634L1.97394 6.06704Z" fill="#555555"/>
</svg>
